<?xml version="1.0" standalone="no"?>
<!DOCTYPE svg PUBLIC "-//W3C//DTD SVG 20010904//EN"
 "http://www.w3.org/TR/2001/REC-SVG-20010904/DTD/svg10.dtd">
<svg version="1.0" xmlns="http://www.w3.org/2000/svg"
 width="500.000000pt" height="500.000000pt" viewBox="0 0 500.000000 500.000000"
 preserveAspectRatio="xMidYMid meet">
<metadata>
Created by potrace 1.14, written by Peter Selinger 2001-2017
</metadata>
<g transform="translate(0.000000,500.000000) scale(0.100000,-0.100000)"
fill="#000000" stroke="none">
<path d="M2329 4995 c-2 -1 -44 -6 -94 -10 -49 -4 -92 -8 -95 -10 -3 -2 -26
-6 -51 -9 -56 -6 -242 -50 -324 -75 -286 -90 -595 -254 -830 -441 -108 -86
-315 -295 -397 -401 -298 -384 -483 -844 -526 -1304 -13 -148 -5 -543 13 -598
2 -6 6 -30 9 -52 4 -35 25 -135 55 -256 4 -20 11 -41 14 -46 3 -5 8 -20 10
-34 9 -48 88 -243 144 -357 201 -408 512 -755 898 -1005 269 -173 671 -326
955 -362 49 -6 106 -13 170 -21 59 -7 368 -7 435 0 120 12 171 20 285 43 130
25 367 99 480 149 608 268 1084 752 1327 1349 72 178 106 292 149 500 2 10 6
37 9 60 3 22 8 57 11 77 3 20 7 54 9 75 5 48 6 418 1 458 -2 17 -7 59 -10 95
-4 36 -14 94 -22 130 -9 36 -17 79 -19 95 -8 58 -74 271 -119 384 -124 307
-314 596 -544 827 -49 49 -93 90 -206 189 -39 34 -221 163 -271 191 -11 6 -47
27 -81 46 -183 105 -502 229 -654 253 -19 3 -48 10 -65 15 -16 5 -46 11 -65
14 -19 2 -60 7 -90 11 -30 4 -66 9 -80 12 -30 5 -426 13 -431 8z m416 -268
c11 -3 45 -8 75 -12 30 -3 71 -10 90 -15 19 -5 51 -11 70 -14 19 -3 76 -17
125 -31 373 -108 695 -296 969 -569 427 -426 659 -984 658 -1583 0 -166 -9
-266 -32 -388 -5 -27 -12 -65 -15 -84 -3 -19 -8 -37 -10 -41 -2 -3 -6 -18 -8
-31 -3 -14 -15 -58 -27 -98 -125 -421 -386 -810 -735 -1096 -90 -73 -88 -72
-174 -129 -497 -327 -1103 -444 -1685 -325 -434 89 -812 295 -1131 614 -221
221 -345 407 -495 740 -45 99 -121 379 -135 494 -4 30 -9 63 -12 75 -9 42 -11
423 -2 506 85 769 550 1431 1244 1770 242 118 502 193 752 216 37 4 69 8 71 9
5 5 385 -3 407 -8z m-452 -4576 c3 -13 1 -18 -9 -14 -7 2 -10 11 -7 19 7 19
10 18 16 -5z m425 5 c7 -4 12 -2 12 5 0 7 2 10 5 7 8 -7 -5 -38 -16 -38 -5 0
-8 3 -6 8 2 7 -6 12 -24 12 -5 0 -7 -5 -4 -11 4 -6 -2 -5 -14 2 -11 8 -16 16
-10 19 12 8 41 6 57 -4z m-349 -6 c-6 -5 -18 -6 -26 -3 -19 8 -16 11 13 11 17
0 22 -3 13 -8z m51 4 c0 -8 -19 -13 -24 -6 -3 5 1 9 9 9 8 0 15 -2 15 -3z
m135 -4 c3 -6 -1 -7 -9 -4 -18 7 -21 14 -7 14 6 0 13 -4 16 -10z m80 0 c3 -6
-1 -7 -9 -4 -18 7 -21 14 -7 14 6 0 13 -4 16 -10z m145 -4 c0 -2 -9 -6 -20 -9
-11 -3 -18 -1 -14 4 5 9 34 13 34 5z"/>
<path d="M2308 4572 l-37 -3 5 -182 c3 -100 7 -187 9 -193 3 -9 40 -12 76 -5
4 0 6 35 5 76 l-2 75 45 1 c25 1 60 2 76 3 l30 1 3 -77 3 -78 45 0 45 0 -5
133 c-2 72 -5 160 -5 195 l-1 63 -42 -3 -43 -3 0 -75 0 -75 -77 -3 -78 -3 0
75 c0 41 -3 76 -7 78 -5 2 -25 2 -45 0z"/>
<path d="M2807 4543 c-5 -8 -13 -45 -23 -98 -3 -16 -16 -77 -30 -133 -13 -57
-24 -111 -24 -121 0 -12 16 -20 63 -29 34 -7 99 -21 145 -31 74 -16 82 -16 82
-2 0 9 3 25 6 36 6 22 -9 28 -144 56 -52 11 -52 11 -50 46 1 19 6 37 11 40 4
2 30 0 56 -7 81 -19 85 -19 104 13 19 31 12 46 -20 47 -16 0 -12 -1 -70 14
-46 12 -48 14 -45 46 1 19 5 36 7 38 3 3 40 -3 82 -13 43 -9 87 -19 99 -22 17
-4 22 1 28 28 3 18 3 36 -1 40 -7 6 -241 59 -262 59 -6 0 -12 -3 -14 -7z"/>
<path d="M1900 4488 c-40 -24 -61 -45 -77 -78 -56 -111 2 -251 118 -284 54
-15 76 -14 134 8 41 16 105 74 105 96 0 5 -14 17 -31 26 -30 15 -32 15 -46 -5
-20 -30 -66 -51 -109 -51 -29 0 -44 7 -70 35 -36 38 -43 63 -33 113 14 68 83
107 149 84 29 -11 31 -9 50 27 l19 38 -22 10 c-12 5 -47 11 -77 12 -47 2 -63
-3 -110 -31z"/>
<path d="M3275 4393 c-32 -8 -64 -44 -77 -85 -10 -34 -9 -41 15 -75 15 -21 42
-50 62 -66 47 -38 59 -61 40 -81 -29 -28 -119 21 -137 75 -4 12 -12 11 -42 -4
l-38 -18 17 -27 c32 -50 67 -80 116 -101 94 -41 179 8 179 103 0 32 -8 45 -65
99 -68 65 -79 91 -45 102 30 10 55 -2 89 -41 30 -34 31 -34 61 -19 38 20 38
35 -2 75 -52 51 -120 76 -173 63z"/>
<path d="M1543 4349 l-32 -20 21 -37 c11 -20 29 -49 39 -64 11 -14 19 -29 19
-33 0 -4 9 -18 20 -32 11 -15 19 -28 17 -30 -3 -2 -63 19 -135 47 -130 51
-149 53 -184 26 -19 -14 -16 -24 30 -98 9 -15 46 -75 81 -133 35 -58 67 -105
72 -105 6 0 22 8 37 17 15 9 28 18 30 19 2 1 -25 45 -58 99 -33 54 -59 99 -57
102 3 2 62 -19 133 -47 70 -27 135 -50 144 -50 8 0 25 8 37 18 l23 17 -98 162
c-53 89 -99 162 -102 162 -3 1 -19 -9 -37 -20z"/>
<path d="M3601 4226 c-29 -31 -27 -41 19 -73 22 -15 40 -32 40 -36 0 -4 -40
-60 -89 -124 -49 -65 -88 -121 -85 -125 3 -4 18 -16 33 -27 l29 -21 88 120
c49 65 93 119 98 120 4 0 26 -14 48 -31 l39 -32 25 23 c13 13 24 28 23 34 0 6
-56 52 -123 103 l-124 92 -21 -23z"/>
<path d="M2280 4025 c-251 -36 -506 -142 -702 -292 -47 -36 -70 -46 -120 -54
-119 -18 -115 -16 -127 -66 -7 -25 -14 -64 -17 -87 -3 -22 -16 -57 -29 -76
-121 -178 -116 -170 -161 -260 -67 -137 -122 -302 -140 -420 -3 -25 -10 -70
-14 -100 -10 -75 -5 -330 9 -410 35 -202 131 -451 223 -584 180 -259 372 -429
623 -553 133 -66 290 -117 425 -138 25 -3 85 -20 134 -36 48 -17 96 -31 106
-32 9 0 62 13 116 30 55 17 146 41 204 53 231 48 445 147 635 293 247 191 458
510 536 810 124 481 27 963 -272 1347 -24 32 -32 51 -43 115 -2 11 -6 37 -10
58 -4 22 -13 38 -21 38 -8 1 -18 2 -22 4 -12 3 -75 14 -106 19 -16 3 -43 16
-60 29 -216 163 -451 266 -702 308 -97 16 -363 18 -465 4z m375 -80 c87 -9
198 -33 290 -62 85 -27 283 -120 325 -152 l25 -20 -55 5 c-50 5 -85 18 -204
75 -44 21 -174 62 -251 79 -81 18 -162 25 -290 25 -158 0 -233 -10 -395 -53
-48 -12 -164 -59 -230 -93 -51 -25 -166 -46 -154 -28 15 25 253 141 316 154
18 4 38 11 43 15 6 4 44 15 85 23 106 23 126 26 205 33 39 4 71 8 73 9 4 3
154 -3 217 -10z m85 -349 c180 -8 269 -14 325 -21 22 -3 67 -7 100 -10 33 -3
85 -10 115 -15 30 -5 73 -12 95 -15 89 -13 92 -14 98 -48 30 -168 36 -209 42
-252 3 -27 8 -61 10 -75 9 -63 16 -200 9 -200 -4 0 -16 8 -27 18 -11 9 -17 11
-13 5 4 -7 2 -13 -4 -13 -6 0 -8 -4 -5 -10 3 -5 1 -10 -5 -10 -6 0 -8 -4 -5
-10 3 -5 1 -10 -5 -10 -7 0 -10 -6 -7 -12 2 -7 -2 -27 -9 -44 -7 -16 -11 -42
-10 -57 2 -15 0 -27 -3 -27 -4 0 -7 -9 -7 -20 0 -11 4 -20 9 -20 4 0 6 -3 4
-7 -3 -5 1 -13 8 -20 11 -10 15 -10 19 0 3 9 7 8 15 -3 9 -13 11 -12 11 4 0
11 3 16 6 13 4 -3 15 -2 24 3 14 7 19 5 22 -8 3 -15 3 -132 -1 -234 l-1 -38
-249 0 c-227 0 -250 2 -256 18 -17 37 -13 52 21 94 30 35 54 77 54 92 0 2 -19
0 -42 -4 -72 -14 -121 -21 -171 -26 -42 -4 -48 -3 -45 12 2 12 45 32 146 67
114 40 142 54 138 66 -2 9 -17 45 -32 81 -25 60 -26 72 -22 172 3 60 4 108 2
108 -2 0 -55 -18 -119 -39 l-115 -40 -1 67 c-3 176 -3 177 -19 174 -8 -2 -33
-12 -56 -23 -22 -10 -45 -19 -52 -19 -6 0 -13 -4 -17 -9 -3 -6 10 -9 30 -8 19
1 35 5 35 8 0 11 44 19 50 9 7 -11 3 -571 -4 -577 -2 -2 -23 34 -47 79 -42 79
-44 87 -45 174 -1 80 -5 97 -29 138 -18 30 -29 66 -32 104 -2 31 -14 75 -25
96 -15 28 -21 56 -20 93 0 29 0 53 -1 53 -1 0 -26 -9 -54 -20 l-53 -20 0 55 0
54 -27 -10 c-49 -17 -128 -58 -113 -59 9 0 39 6 68 13 55 15 61 12 54 -32 -3
-23 -14 -30 -69 -50 -49 -18 -70 -31 -84 -55 -25 -41 -25 -107 1 -137 10 -13
19 -18 20 -12 0 29 130 75 243 87 38 3 39 -10 1 -19 -28 -6 -182 -60 -231 -80
-62 -25 -78 -81 -48 -166 19 -54 32 -62 57 -37 23 23 84 50 150 66 58 15 194
25 158 13 -14 -5 -91 -32 -173 -60 -81 -28 -155 -55 -165 -60 -19 -10 -42 -70
-42 -112 -1 -23 -2 -23 -17 6 -10 18 -17 58 -18 100 -2 54 -8 82 -30 122 -21
41 -26 63 -23 98 2 25 3 45 2 45 -1 0 -21 -7 -44 -15 -23 -8 -46 -13 -50 -10
-4 3 -7 28 -5 56 2 35 -1 52 -10 55 -7 3 -42 -8 -77 -25 -48 -24 -57 -31 -37
-31 15 0 43 7 63 15 20 8 36 12 37 8 1 -5 2 -27 4 -50 2 -40 1 -42 -39 -56
-23 -9 -51 -18 -63 -22 -32 -9 -62 -78 -58 -132 6 -67 19 -77 63 -48 32 20
105 40 225 59 48 8 21 -10 -45 -29 -35 -10 -67 -21 -73 -25 -5 -4 -37 -15 -70
-25 -33 -10 -67 -24 -76 -32 -36 -31 -30 -124 11 -176 l20 -26 46 20 c25 12
47 19 49 17 2 -1 5 -16 7 -33 3 -30 3 -30 -47 -31 -27 0 -67 3 -88 8 -21 4
-56 11 -79 13 -22 3 -44 8 -48 10 -4 3 -25 7 -46 11 -21 3 -65 14 -98 25 -69
21 -88 17 -30 -7 133 -54 179 -84 217 -138 20 -30 37 -60 37 -65 0 -8 -81 -11
-250 -11 l-250 0 4 268 c3 147 7 277 10 289 2 12 8 53 11 90 4 37 8 79 10 93
2 14 7 51 10 83 12 100 42 229 56 238 8 5 23 9 34 10 11 0 31 2 45 5 40 6 152
23 190 28 31 4 98 10 230 21 25 2 117 6 205 10 88 4 161 8 162 8 3 4 194 0
343 -7z m-1465 -328 c-2 -7 -6 -36 -8 -64 -3 -28 -16 -73 -30 -100 -56 -111
-111 -298 -125 -424 -9 -85 -9 -278 0 -361 33 -285 178 -578 393 -794 93 -93
104 -102 170 -147 22 -14 57 -41 77 -60 61 -55 80 -71 132 -111 62 -47 52 -47
-37 -1 -209 108 -376 248 -511 429 -353 471 -386 1109 -84 1613 20 33 30 42
23 20z m2502 -85 c74 -144 120 -272 148 -414 29 -144 27 -396 -4 -557 -35
-178 -126 -387 -238 -543 -58 -83 -205 -239 -289 -308 -72 -60 -245 -163 -322
-192 -32 -12 -29 -9 35 39 28 21 72 56 99 79 27 23 85 69 129 102 166 123 302
282 400 466 63 119 125 303 140 415 4 30 9 64 11 75 6 28 5 272 -1 315 -16
127 -17 133 -45 225 -12 39 -22 75 -23 81 -6 26 -71 164 -78 164 -4 0 -11 26
-14 58 -4 31 -9 65 -11 75 -3 9 -1 17 4 17 5 0 31 -44 59 -97z m-1435 -506 c9
-2 27 -15 39 -31 21 -27 22 -27 43 -8 11 11 31 23 44 27 20 6 22 3 22 -36 l0
-42 -167 6 c-93 4 -171 7 -175 7 -9 0 -11 74 -3 82 5 4 165 1 197 -5z m388 -4
c25 -4 50 -8 55 -9 6 -1 18 -2 28 -3 25 -2 21 -30 -5 -35 -13 -3 -47 -7 -77
-10 -29 -3 -58 -9 -65 -14 -6 -4 -40 -9 -76 -11 l-65 -2 -2 45 c-2 42 -1 45
25 48 36 4 127 0 182 -9z m-188 -189 c66 -2 110 1 137 11 34 12 49 12 105 0
147 -31 110 -34 -369 -34 -469 0 -470 0 -446 19 26 22 46 24 111 9 89 -20 220
-9 220 20 0 5 33 2 73 -6 39 -9 116 -17 169 -19z"/>
<path d="M1900 3016 c-42 -31 -99 -86 -152 -148 -13 -15 -38 -54 -56 -88 l-33
-60 28 -1 c48 -2 96 -6 148 -13 l50 -7 -2 83 c-1 84 28 208 57 244 23 27 5 23
-40 -10z"/>
<path d="M1006 3941 l-28 -29 20 -43 c11 -24 34 -78 52 -119 18 -41 42 -97 55
-125 12 -27 25 -60 29 -72 10 -30 17 -29 48 6 l26 28 -19 43 -19 43 42 46 c64
70 68 72 117 55 42 -14 42 -14 71 18 l29 32 -37 13 c-20 8 -66 25 -102 38 -78
28 -219 80 -240 89 -10 4 -26 -4 -44 -23z m194 -122 c0 -7 -62 -70 -66 -66 -1
1 -13 27 -27 58 l-25 57 59 -22 c32 -11 59 -24 59 -27z"/>
<path d="M3945 3903 c-63 -55 -86 -74 -163 -137 -40 -32 -75 -63 -78 -68 -5
-8 60 -94 143 -187 l40 -43 27 24 28 24 -66 79 -67 80 31 28 31 28 45 -56 c46
-57 63 -63 101 -42 l23 13 -23 24 c-12 14 -37 43 -54 66 l-32 41 22 22 c31 28
39 27 71 -14 15 -19 44 -52 63 -75 l36 -41 23 22 c13 13 24 26 24 31 0 11
-161 205 -175 211 -6 3 -29 -11 -50 -30z"/>
<path d="M745 3601 l-17 -40 46 -80 c25 -44 46 -82 46 -83 0 -2 -31 -5 -68 -6
-37 -2 -77 -5 -87 -7 -11 -2 -23 -4 -27 -4 -13 -2 -50 -73 -42 -80 5 -5 68
-39 139 -76 72 -38 145 -77 162 -86 l33 -19 20 39 19 39 -92 47 c-51 26 -99
53 -107 61 -13 12 -11 14 10 13 29 -2 153 12 159 17 2 2 -17 39 -42 84 -25 44
-43 80 -40 80 3 0 52 -24 109 -54 74 -39 106 -51 111 -43 16 24 33 60 31 62
-2 1 -52 28 -113 60 -60 32 -133 71 -162 86 -29 16 -56 29 -61 29 -5 0 -17
-18 -27 -39z"/>
<path d="M4103 3481 c-95 -47 -173 -88 -173 -91 0 -3 9 -20 20 -38 l20 -32 50
25 c27 14 52 25 54 25 3 0 12 -12 20 -27 13 -26 12 -32 -22 -94 -35 -63 -36
-68 -22 -95 29 -59 31 -59 72 15 39 71 39 71 64 55 40 -27 118 -14 157 25 49
48 45 100 -17 221 -26 52 -48 95 -49 96 -1 0 -80 -38 -174 -85z m172 -82 c23
-50 23 -70 2 -96 -14 -19 -58 -16 -74 5 -15 19 -54 94 -50 97 8 7 83 44 90 45
4 0 19 -23 32 -51z"/>
<path d="M480 2597 c-14 -6 -26 -12 -28 -13 -10 -5 13 -34 27 -32 13 3 17 -11
21 -87 5 -82 7 -90 25 -90 19 0 20 8 23 118 3 116 2 117 -20 116 -13 0 -34 -5
-48 -12z"/>
<path d="M635 2586 c-24 -24 -25 -62 -1 -78 7 -4 4 -13 -7 -26 -46 -50 7 -118
84 -109 23 2 47 11 54 18 23 23 26 68 6 88 -15 15 -16 21 -4 36 20 28 16 51
-13 74 -37 29 -89 27 -119 -3z m79 -22 c23 -9 19 -42 -6 -50 -27 -8 -54 22
-37 43 13 15 20 16 43 7z m15 -108 c9 -11 8 -18 -4 -30 -20 -19 -26 -20 -50
-2 -24 17 -13 46 18 46 14 0 30 -6 36 -14z"/>
<path d="M4183 2584 c-21 -21 -24 -32 -19 -62 7 -46 28 -62 83 -62 41 0 43 -1
32 -21 -9 -18 -17 -21 -52 -16 -31 4 -44 2 -53 -11 -10 -14 -8 -18 18 -29 83
-35 148 16 148 117 0 72 -31 109 -93 110 -28 0 -45 -7 -64 -26z m97 -29 c28
-34 -24 -80 -55 -48 -18 17 -18 19 -5 44 13 23 43 25 60 4z"/>
<path d="M4448 2538 c-52 -58 -64 -77 -58 -93 6 -17 16 -20 59 -20 28 1 52 -4
53 -10 0 -5 1 -17 2 -25 1 -8 11 -16 24 -16 17 -1 22 4 22 22 0 13 4 24 10 24
5 0 14 9 20 21 10 17 8 21 -9 26 -17 4 -20 13 -19 61 0 32 0 63 -1 70 -3 30
-43 7 -103 -60z m58 -38 c0 -26 -3 -30 -28 -30 l-29 0 21 30 c12 17 25 30 29
30 4 0 7 -13 7 -30z"/>
<path d="M1950 822 c-47 -29 -73 -57 -91 -97 -33 -72 -19 -166 34 -224 31 -33
111 -69 149 -66 18 2 42 3 54 4 11 0 41 15 67 31 l45 31 -29 30 -29 30 -29
-22 c-36 -27 -99 -29 -136 -5 -50 33 -67 116 -37 173 32 59 130 73 183 26 15
-12 20 -10 43 17 14 18 23 36 20 42 -4 6 -26 19 -50 30 -53 23 -157 23 -194 0z"/>
<path d="M2296 832 c-6 -10 -8 -92 -7 -260 l1 -133 42 3 43 4 0 194 0 195 -37
2 c-21 1 -39 -1 -42 -5z"/>
<path d="M2460 799 l0 -39 60 0 60 0 0 -161 0 -160 43 3 42 3 0 155 0 155 60
5 60 5 0 35 0 35 -162 1 -163 2 0 -39z"/>
<path d="M2856 782 c21 -31 42 -66 48 -77 6 -10 23 -37 39 -59 24 -35 27 -48
27 -121 l0 -82 45 0 45 0 0 82 c0 73 3 86 28 121 15 22 32 49 38 59 6 11 27
45 47 75 l35 56 -49 1 -49 0 -42 -73 c-24 -41 -47 -72 -53 -71 -5 2 -20 21
-32 43 -12 21 -25 44 -30 50 -4 5 -13 19 -19 30 -9 14 -23 19 -63 21 l-51 2
36 -57z"/>
</g>
</svg>
